<?xml version="1.0" encoding="UTF-8"?>
<svg id="Layer_1" xmlns="http://www.w3.org/2000/svg" width="1200" height="221.8048859" version="1.1" viewBox="0 0 1200 221.8048859">
  <!-- Generator: Adobe Illustrator 29.2.1, SVG Export Plug-In . SVG Version: 2.1.0 Build 116)  -->
  <defs>
    <style>
      .st0 {
        fill: #97e790;
      }
    </style>
  </defs>
  <polygon points="325.8875732 152.7619781 325.8875732 129.9519806 399.2756348 129.9519806 399.2756348 87.8027496 325.8875732 87.8027496 325.8875732 67.4726105 409.4415283 67.4726105 409.4415283 23.339859 268.366272 23.339859 268.366272 196.8947296 412.6642456 196.8947296 412.6642456 152.7619781 325.8875732 152.7619781"/>
  <path d="M213.5958973,143.5137802c9.7251931-4.9763116,17.4065863-11.6872369,23.0359547-20.1323795,6.4461351-9.6688062,9.669599-21.1974862,9.669599-34.5860398s-3.2234639-24.9996832-9.669599-34.8349743c-6.4461351-9.83212-15.5806042-17.3937036-27.3962723-22.6863365-11.819632-5.2878762-25.8281435-7.9341926-42.0255345-7.9341926h-83.5539928v72.0100518h58.5130848v-26.8847278h21.3219534c8.0967135,0,14.0901684,1.8202344,17.9756078,5.454361,3.8814755,3.6372977,5.8261772,8.5953753,5.8261772,14.8758183,0,6.2836142-1.9447017,11.2416917-5.8261772,14.8758183-3.8854394,3.6372977-9.8788943,5.454361-17.9756078,5.454361h-93.7695517v-40.867672L7.0725937,132.5304373l62.6489452,64.272569v-43.5447088h88.3861449l29.4333335,43.6364737h62.4793883l-36.4245083-53.3809909Z"/>
  <rect class="st0" x="83.6560524" y="167.098243" width="58.5130848" height="29.7965281"/>
  <path d="M472.9103316,196.8947463V68.7125057h-50.8270339V23.3398328h160.1663599v45.3726729h-50.8270339v128.1822406h-58.512292Z"/>
  <path d="M688.3623484,200.8618426c-14.0497363,0-27.0672665-2.2308971-39.0494195-6.6942768-11.9853241-4.4633797-22.3565379-10.7850476-31.1152269-18.9665891-8.762653-8.1831271-15.5806042-17.8091229-20.4546466-28.8843298-4.8772135-11.0720357-7.3142347-23.1398095-7.3142347-36.1985645,0-13.2220688,2.4370212-25.3294817,7.3142347-36.3238246,4.8740424-10.9895861,11.6919936-20.5775283,20.4546466-28.7590698,8.758689-8.1831271,19.1299028-14.5047949,31.1152269-18.9681747,11.982153-4.4617942,24.9996832-6.6942768,39.0494195-6.6942768,14.2146356,0,27.2733906,2.2324826,39.1746795,6.6942768,11.9012889,4.4633797,22.2281067,10.7850476,30.9915524,18.9681747,8.758689,8.1815415,15.5766403,17.7694837,20.4554394,28.7590698,4.8724568,10.9943428,7.3126491,23.1017558,7.3126491,36.3238246,0,13.058755-2.4401923,25.1265288-7.3126491,36.1985645-4.8787991,11.0752069-11.6967504,20.7012027-20.4554394,28.8843298-8.7634457,8.1815415-19.0902636,14.5032094-30.9915524,18.9665891-11.9012889,4.4633797-24.9600439,6.6942768-39.1746795,6.6942768ZM688.3623484,153.5056216c5.4559466,0,10.5376986-.9909813,15.2484273-2.9745294s8.8411387-4.8344031,12.3975723-8.5541505c3.5516769-3.7181618,6.3216678-8.2624056,8.305216-13.6359025,1.9835481-5.3703258,2.976115-11.4446447,2.976115-18.2229567,0-6.7767264-.9925669-12.8510454-2.976115-18.2245423-1.9835481-5.3687402-4.753539-9.9161552-8.305216-13.6359025-3.5564337-3.7181618-7.6868437-6.5706023-12.3975723-8.5541505s-9.7924807-2.9745294-15.2484273-2.9745294c-5.454361,0-10.5361131.9909813-15.2468417,2.9745294s-8.8443098,4.8359887-12.3975723,8.5541505c-3.5564337,3.7197474-6.3216678,8.2671623-8.305216,13.6359025-1.9835481,5.3734969-2.976115,11.4478159-2.976115,18.2245423,0,6.778312.9925669,12.8526309,2.976115,18.2229567,1.9835481,5.3734969,4.7487823,9.9177407,8.305216,13.6359025,3.5532625,3.7197474,7.6868437,6.5706023,12.3975723,8.5541505s9.7924807,2.9745294,15.2468417,2.9745294Z"/>
  <path d="M911.5028076,196.8947296h62.4793701l-36.4240723-53.3804321c9.7253418-4.9762573,17.4068604-11.6878662,23.0355225-20.1329346,6.4468994-9.6688232,9.6704102-21.1974487,9.6704102-34.5859985,0-13.3886108-3.2235107-24.9996948-9.6704102-34.835022-6.4453125-9.8320923-15.5814209-17.3936768-27.3970337-22.6863403-11.8188477-5.2878418-25.8273926-7.9341431-42.0239868-7.9341431h-83.5547485v173.5548706h58.5122681v-43.6364746h15.9387817l29.4338989,43.6364746ZM905.4284668,73.9195099c3.8814697,3.6373291,5.8269653,8.5953979,5.8269653,14.8758545,0,6.2835693-1.9454956,11.2416382-5.8269653,14.8757935-3.8862305,3.6372681-9.8781128,5.4543457-17.9755859,5.4543457h-21.3227539v-40.6603394h21.3227539c8.0974731,0,14.0893555,1.8202515,17.9755859,5.4543457Z"/>
  <path d="M1083.3215086,200.8618426c-14.0513219,0-27.0672665-2.2308971-39.0494195-6.6942768-11.9869097-4.4633797-22.3581235-10.7850476-31.1168125-18.9665891-8.7634457-8.1831271-15.581397-17.8091229-20.4538538-28.8843298-4.8772135-11.0720357-7.3142347-23.1398095-7.3142347-36.1985645,0-13.2220688,2.4370212-25.3294817,7.3142347-36.3238246,4.8724568-10.9895861,11.6904081-20.5775283,20.4538538-28.7590698,8.758689-8.1831271,19.1299028-14.5047949,31.1168125-18.9681747,11.982153-4.4617942,24.9980976-6.6942768,39.0494195-6.6942768,14.21305,0,27.2718051,2.2324826,39.173094,6.6942768,11.9012889,4.4633797,22.2296923,10.7850476,30.9915524,18.9681747,8.7602746,8.1815415,15.5782259,17.7694837,20.4554394,28.7590698,4.8724568,10.9943428,7.3142347,23.1017558,7.3142347,36.3238246,0,13.058755-2.4417779,25.1265288-7.3142347,36.1985645-4.8772135,11.0752069-11.6951648,20.7012027-20.4554394,28.8843298-8.7618602,8.1815415-19.0902636,14.5032094-30.9915524,18.9665891-11.9012889,4.4633797-24.9600439,6.6942768-39.173094,6.6942768ZM1083.3215086,153.5056216c5.454361,0,10.5361131-.9909813,15.2468417-2.9745294s8.8411387-4.8344031,12.3975723-8.5541505c3.5516769-3.7181618,6.3216678-8.2624056,8.305216-13.6359025,1.9835481-5.3703258,2.976115-11.4446447,2.976115-18.2229567,0-6.7767264-.9925669-12.8510454-2.976115-18.2245423-1.9835481-5.3687402-4.753539-9.9161552-8.305216-13.6359025-3.5564337-3.7181618-7.6868437-6.5706023-12.3975723-8.5541505s-9.7924807-2.9745294-15.2468417-2.9745294-10.5376986.9909813-15.2484273,2.9745294-8.8443098,4.8359887-12.3959867,8.5541505c-3.5564337,3.7197474-6.3232534,8.2671623-8.3068016,13.6359025-1.9835481,5.3734969-2.9745294,11.4478159-2.9745294,18.2245423,0,6.778312.9909813,12.8526309,2.9745294,18.2229567,1.9835481,5.3734969,4.7503679,9.9177407,8.3068016,13.6359025,3.5516769,3.7197474,7.6852581,6.5706023,12.3959867,8.5541505s9.7940663,2.9745294,15.2484273,2.9745294Z"/>
</svg>
