<?xml version="1.0" encoding="UTF-8"?>
<svg id="Layer_1" xmlns="http://www.w3.org/2000/svg" width="1200" height="221.8" version="1.1" viewBox="0 0 1200 221.8">
  <!-- Generator: Adobe Illustrator 29.2.1, SVG Export Plug-In . SVG Version: 2.1.0 Build 116)  -->
  <defs>
    <style>
      .st0 {
        fill: #00d31e;
      }

      .st1 {
        fill: #fff;
      }

      .st2 {
        opacity: .3;
      }
    </style>
  </defs>
  <polygon class="st1" points="325.9 152.8 325.9 130 399.3 130 399.3 87.8 325.9 87.8 325.9 67.5 409.4 67.5 409.4 23.3 268.4 23.3 268.4 196.9 412.7 196.9 412.7 152.8 325.9 152.8"/>
  <path class="st1" d="M472.9,196.9V68.7h-50.8V23.3h160.2v45.4h-50.8v128.2h-58.5Z"/>
  <path class="st1" d="M688.4,200.9c-14,0-27.1-2.2-39-6.7-12-4.5-22.4-10.8-31.1-19-8.8-8.2-15.6-17.8-20.5-28.9-4.9-11.1-7.3-23.1-7.3-36.2s2.4-25.3,7.3-36.3c4.9-11,11.7-20.6,20.5-28.8,8.8-8.2,19.1-14.5,31.1-19,12-4.5,25-6.7,39-6.7s27.3,2.2,39.2,6.7c11.9,4.5,22.2,10.8,31,19,8.8,8.2,15.6,17.8,20.5,28.8,4.9,11,7.3,23.1,7.3,36.3s-2.4,25.1-7.3,36.2c-4.9,11.1-11.7,20.7-20.5,28.9-8.8,8.2-19.1,14.5-31,19s-25,6.7-39.2,6.7ZM688.4,153.5c5.5,0,10.5-1,15.2-3s8.8-4.8,12.4-8.6c3.6-3.7,6.3-8.3,8.3-13.6,2-5.4,3-11.4,3-18.2s-1-12.9-3-18.2c-2-5.4-4.8-9.9-8.3-13.6-3.6-3.7-7.7-6.6-12.4-8.6s-9.8-3-15.2-3-10.5,1-15.2,3-8.8,4.8-12.4,8.6c-3.6,3.7-6.3,8.3-8.3,13.6-2,5.4-3,11.4-3,18.2s1,12.9,3,18.2c2,5.4,4.7,9.9,8.3,13.6,3.6,3.7,7.7,6.6,12.4,8.6s9.8,3,15.2,3Z"/>
  <path class="st1" d="M911.5,196.9h62.5l-36.4-53.4c9.7-5,17.4-11.7,23-20.1,6.4-9.7,9.7-21.2,9.7-34.6s-3.2-25-9.7-34.8c-6.4-9.8-15.6-17.4-27.4-22.7-11.8-5.3-25.8-7.9-42-7.9h-83.6v173.6h58.5v-43.6h15.9l29.4,43.6ZM905.4,73.9c3.9,3.6,5.8,8.6,5.8,14.9s-1.9,11.2-5.8,14.9c-3.9,3.6-9.9,5.5-18,5.5h-21.3v-40.7h21.3c8.1,0,14.1,1.8,18,5.5Z"/>
  <path class="st1" d="M1083.3,200.9c-14.1,0-27.1-2.2-39-6.7-12-4.5-22.4-10.8-31.1-19-8.8-8.2-15.6-17.8-20.5-28.9-4.9-11.1-7.3-23.1-7.3-36.2s2.4-25.3,7.3-36.3c4.9-11,11.7-20.6,20.5-28.8,8.8-8.2,19.1-14.5,31.1-19,12-4.5,25-6.7,39-6.7s27.3,2.2,39.2,6.7c11.9,4.5,22.2,10.8,31,19,8.8,8.2,15.6,17.8,20.5,28.8,4.9,11,7.3,23.1,7.3,36.3s-2.4,25.1-7.3,36.2c-4.9,11.1-11.7,20.7-20.5,28.9-8.8,8.2-19.1,14.5-31,19-11.9,4.5-25,6.7-39.2,6.7ZM1083.3,153.5c5.5,0,10.5-1,15.2-3s8.8-4.8,12.4-8.6c3.6-3.7,6.3-8.3,8.3-13.6,2-5.4,3-11.4,3-18.2s-1-12.9-3-18.2c-2-5.4-4.8-9.9-8.3-13.6-3.6-3.7-7.7-6.6-12.4-8.6s-9.8-3-15.2-3-10.5,1-15.2,3-8.8,4.8-12.4,8.6c-3.6,3.7-6.3,8.3-8.3,13.6-2,5.4-3,11.4-3,18.2s1,12.9,3,18.2c2,5.4,4.8,9.9,8.3,13.6,3.6,3.7,7.7,6.6,12.4,8.6s9.8,3,15.2,3Z"/>
  <g>
    <path class="st1" d="M213.6,143.5h0c.1.2.3.5.5.7l-.5-.7Z"/>
    <path class="st1" d="M213.6,143.5c9.7-5,17.4-11.7,23-20.1,6.4-9.7,9.7-21.2,9.7-34.6s-3.2-25-9.7-34.8c-6.4-9.8-15.6-17.4-27.4-22.7-11.8-5.3-25.8-7.9-42-7.9h-83.6v72h58.5v-26.9h21.3c8.1,0,14.1,1.8,18,5.5,3.9,3.6,5.8,8.6,5.8,14.9s-1.9,11.2-5.8,14.9c-3.9,3.6-9.9,5.5-18,5.5h-93.8v-40.9L7.1,132.5l62.6,64.3v-43.5h88.4s27.5,1.4,55.5-9.7Z"/>
  </g>
  <rect class="st0" x="83.7" y="153.3" width="58.5" height="43.6"/>
  <path class="st0" d="M250,196.9l-34.9-51.2c-.5-.8-1-1.5-1.5-2.2-28,11.2-55.5,9.7-55.5,9.7l29.4,43.6h62.5Z"/>
  <polygon class="st2" points="142.2 153.3 83.7 153.3 83.7 196.9 83.7 196.9 83.7 167.3 142.2 167.3 142.2 153.3"/>
  <path class="st2" d="M215.1,145.7c-.5-.8-1-1.5-1.5-2.2-28,11.2-55.5,9.7-55.5,9.7l9.4,13.9c11.5-.5,31.2-2.6,51.3-10.7l.6-.2.6-.3c.5-.3,1-.5,1.6-.8l-6.4-9.4Z"/>
</svg>
