<?xml version="1.0" encoding="UTF-8"?>
<svg id="Layer_1" xmlns="http://www.w3.org/2000/svg" width="1200" height="221.8048901" version="1.1" viewBox="0 0 1200 221.8048901">
  <!-- Generator: Adobe Illustrator 29.2.1, SVG Export Plug-In . SVG Version: 2.1.0 Build 116)  -->
  <defs>
    <style>
      .st0 {
        fill: #48926f;
      }
    </style>
  </defs>
  <path d="M123.552002,203.6588072h66.9075317l-39.005249-57.1638794c10.4142456-5.3289795,18.6392822-12.5167847,24.6677856-21.5598755,6.9031982-10.3543091,10.3552246-22.699707,10.3552246-37.0371704s-3.4520264-26.7705078-10.3552246-37.3037109c-6.9031982-10.52948-16.6854248-18.6271362-29.3383179-24.2938843-12.6575928-5.6630859-27.6583862-8.49646-45.003479-8.49646H12.3043823v185.8549805h62.659729v-46.7299805h17.0679932l31.5198975,46.7299805ZM117.0466309,71.9671568c4.1574097,3.8955688,6.2398071,9.2055054,6.2398071,15.9307251,0,6.7289429-2.0823975,12.0388794-6.2398071,15.9297485-4.1610718,3.8955688-10.5788574,5.84198-19.2485962,5.84198h-22.8339233v-43.543457h22.8339233c8.6697388,0,15.0875244,1.9491577,19.2485962,5.8410034Z"/>
  <polygon class="st0" points="207.8334961 17.8038267 207.8334961 65.0639586 297.3093872 65.0639586 297.3093872 86.8356871 218.7188721 86.8356871 218.7188721 131.9714903 297.3093872 131.9714903 297.3093872 156.3976988 204.3814087 156.3976988 204.3814087 203.6588072 358.9069824 203.6588072 358.9069824 17.8038267 207.8334961 17.8038267"/>
  <path d="M429.1463555,203.658798V66.3916877h-54.4288666V17.803836h171.517502v48.5878518h-54.4288666v137.2671102h-62.6597687Z"/>
  <path d="M659.8706352,207.9074864c-15.0474382,0-28.9861178-2.390819-41.8179022-7.16873-12.8355114-4.7797745-23.9408003-11.5497241-33.3205253-20.3117122-9.3843837-8.7619882-16.6854194-19.070648-21.9049704-30.9315698-5.2223462-11.8571949-7.8321217-24.7802889-7.8321217-38.7646233,0-14.1585678,2.6097755-27.1226579,7.8321217-38.8969289,5.219551-11.7686806,12.5205866-22.0363443,21.9049704-30.7983325,9.3797251-8.7619882,20.485014-15.5319377,33.3205253-20.3117122,12.8317844-4.7788428,26.770464-7.16873,41.8179022-7.16873,15.2207399,0,29.206006,2.3898872,41.9502078,7.16873,12.7442018,4.7797745,23.803836,11.5497241,33.1882197,20.3117122,9.3806568,8.7619882,16.6816925,19.0296519,21.9049704,30.7983325,5.2176875,11.774271,7.8321217,24.7383611,7.8321217,38.8969289,0,13.9843343-2.6144342,26.9074283-7.8321217,38.7646233-5.2232779,11.8609219-12.5243136,22.1695817-21.9049704,30.9315698-9.3843837,8.7619882-20.4440179,15.5319377-33.1882197,20.3117122-12.7442018,4.777911-26.7294679,7.16873-41.9502078,7.16873ZM659.8706352,157.1952904c5.8400831,0,11.2832493-1.0621721,16.3276351-3.1865163,5.0462492-2.1243442,9.4682394-5.1766914,13.2771513-9.1607686,3.8033215-3.9822137,6.7699496-8.8477073,8.8942938-14.6020713,2.1224808-5.7506371,3.1846529-12.2550436,3.1846529-19.5150831,0-7.2553809-1.0621721-13.7607192-3.1846529-19.5141514-2.1243442-5.7506371-5.0909723-10.6207893-8.8942938-14.603003-3.8089119-3.9831454-8.2309021-7.0364243-13.2771513-9.1598368-5.0443858-2.1243442-10.487552-3.1865163-16.3276351-3.1865163-5.8410149,0-11.284181,1.0621721-16.3285668,3.1865163-5.0453175,2.1234125-9.4710346,5.1766914-13.2752879,9.1598368-3.8089119,3.9822137-6.7708813,8.852366-8.8952255,14.603003-2.1234125,5.7534322-3.1855846,12.2587705-3.1855846,19.5141514,0,7.2600395,1.0621721,13.7644461,3.1855846,19.5150831,2.1243442,5.754364,5.0863136,10.6198576,8.8952255,14.6020713,3.8042533,3.9840771,8.2299704,7.0364243,13.2752879,9.1607686,5.0443858,2.1243442,10.487552,3.1865163,16.3285668,3.1865163Z"/>
  <path d="M898.8258057,203.6588072h66.9075317l-39.0057983-57.1635742c10.4147339-5.3289795,18.640564-12.5169067,24.668335-21.5601807,6.9041138-10.3543091,10.3552246-22.699707,10.3552246-37.0371704s-3.4511108-26.7705078-10.3552246-37.3037109c-6.9022217-10.52948-16.6854248-18.6271362-29.3383179-24.2938843-12.6566162-5.6630859-27.6593018-8.49646-45.0043945-8.49646h-89.4758911v185.8549805h62.6607056v-46.7299805h17.0679932l31.5198364,46.7299805ZM892.3204956,71.9671568c4.1573486,3.8955688,6.2388306,9.2055054,6.2388306,15.9307251,0,6.7289429-2.0814819,12.0388794-6.2388306,15.9297485-4.1611328,3.8955688-10.5788574,5.84198-19.2495728,5.84198h-22.8329468v-43.543457h22.8329468c8.6707153,0,15.0884399,1.9491577,19.2495728,5.8410034Z"/>
  <path d="M1082.8201144,207.9074864c-15.0474382,0-28.9861178-2.390819-41.8179022-7.16873-12.8355114-4.7797745-23.941732-11.5497241-33.3205253-20.3117122-9.3843837-8.7619882-16.6854194-19.070648-21.9049704-30.9315698-5.2232779-11.8571949-7.8321217-24.7802889-7.8321217-38.7646233,0-14.1585678,2.6088438-27.1226579,7.8321217-38.8969289,5.219551-11.7686806,12.5205866-22.0363443,21.9049704-30.7983325,9.3787934-8.7619882,20.485014-15.5319377,33.3205253-20.3117122,12.8317844-4.7788428,26.770464-7.16873,41.8179022-7.16873,15.2207399,0,29.206006,2.3898872,41.9502078,7.16873,12.7442018,4.7797745,23.803836,11.5497241,33.1882197,20.3117122,9.3806568,8.7619882,16.6816925,19.0296519,21.9049704,30.7983325,5.2176875,11.774271,7.8321217,24.7383611,7.8321217,38.8969289,0,13.9843343-2.6144342,26.9074283-7.8321217,38.7646233-5.2232779,11.8609219-12.5243136,22.1695817-21.9049704,30.9315698-9.3843837,8.7619882-20.4440179,15.5319377-33.1882197,20.3117122-12.7442018,4.777911-26.7294679,7.16873-41.9502078,7.16873ZM1082.8201144,157.1952904c5.8400831,0,11.2832493-1.0621721,16.3276351-3.1865163,5.0462492-2.1243442,9.4682394-5.1766914,13.2771513-9.1607686,3.8033215-3.9822137,6.7699496-8.8477073,8.8942938-14.6020713,2.1224808-5.7506371,3.1846529-12.2550436,3.1846529-19.5150831,0-7.2553809-1.0621721-13.7607192-3.1846529-19.5141514-2.1243442-5.7506371-5.0909723-10.6207893-8.8942938-14.603003-3.8089119-3.9831454-8.2309021-7.0364243-13.2771513-9.1598368-5.0443858-2.1243442-10.487552-3.1865163-16.3276351-3.1865163-5.8419466,0-11.2851128,1.0621721-16.3294985,3.1865163-5.0443858,2.1234125-9.4701029,5.1766914-13.2752879,9.1598368-3.8070484,3.9822137-6.7699496,8.852366-8.8942938,14.603003-2.1243442,5.7534322-3.1865163,12.2587705-3.1865163,19.5141514,0,7.2600395,1.0621721,13.7644461,3.1865163,19.5150831,2.1243442,5.754364,5.0872454,10.6198576,8.8942938,14.6020713,3.805185,3.9840771,8.2309021,7.0364243,13.2752879,9.1607686s10.487552,3.1865163,16.3294985,3.1865163Z"/>
</svg>