<?xml version="1.0" encoding="UTF-8"?>
<svg id="Layer_1" xmlns="http://www.w3.org/2000/svg" width="500" height="500" version="1.1" viewBox="0 0 500 500">
  <!-- Generator: Adobe Illustrator 29.2.1, SVG Export Plug-In . SVG Version: 2.1.0 Build 116)  -->
  <defs>
    <style>
      .st0 {
        isolation: isolate;
        opacity: .3;
      }

      .st1 {
        fill: #00d31e;
      }

      .st2 {
        fill: #fff;
      }
    </style>
  </defs>
  <rect class="st2" x="32.5405064" y="32.5405064" width="434.9189872" height="434.9189872" rx="109.3458542" ry="109.3458542"/>
  <g>
    <g>
      <path d="M349.2914386,293.2477291h0c.1296863.2593527.389039.6483917.6483917.9077444l-.6483917-.9077444Z"/>
      <path d="M349.2914386,293.2477291c12.5787953-6.4839171,22.5640237-15.1723622,29.8260189-26.0653449,8.299406-12.5787953,12.5787953-27.4918146,12.5787953-44.8687046s-4.149703-32.4195857-12.5787953-45.1280623c-8.299406-12.7084766-20.2298294-22.5640287-35.531858-29.4369848-15.3020484-6.8729512-33.4570164-10.2445886-54.464904-10.2445886h-108.4110926v93.3684044h75.8618207v-34.8834762h27.621491c10.5039537,0,18.2846543,2.3342141,23.3421017,7.1323089,5.0574475,4.6684184,7.5213478,11.1523355,7.5213478,19.3220751s-2.4638806,14.5239704-7.5213478,19.3220751c-5.0574475,4.6684184-12.838148,7.1323089-23.3421017,7.1323089h-121.6382895v-53.0384442l-81.0489723,83.1238158,81.1786388,83.3831784v-56.4100791h114.6356669s35.6615443,1.8154889,71.9714803-12.5787953v-.1296863Z"/>
    </g>
    <rect class="st1" x="180.8392593" y="305.9562106" width="75.8618306" height="56.5397456"/>
    <path class="st1" d="M396.4943474,362.4959562l-45.2577337-66.3953076c-.6483917-1.0374307-1.2967834-1.9451751-1.9451751-2.8529196-36.309936,14.5239704-71.9714803,12.5787953-71.9714803,12.5787953l38.1254249,56.5397456h81.0489643v.1296863Z"/>
    <polygon class="st0" points="256.7010899 305.9562106 180.8392593 305.9562106 180.8392593 362.4959562 180.8392593 362.4959562 180.8392593 324.1111786 256.7010899 324.1111786 256.7010899 305.9562106"/>
    <path class="st0" d="M351.2366137,296.1006487c-.6483917-1.0374307-1.2967834-1.9451751-1.9451751-2.8529196-36.309936,14.5239704-71.9714803,12.5787953-71.9714803,12.5787953l12.1897563,18.0252817c14.9130094-.6483917,40.459639-3.3716448,66.5249938-13.8755787l.778078-.2593527.778078-.389039c.6483917-.389039,1.2967834-.6483917,2.0748614-1.0374307l-8.299406-12.1897563h-.129706Z"/>
  </g>
</svg>

